<svg xmlns="http://www.w3.org/2000/svg" viewBox="0 0 64 64" fill="none">
  <g fill="#000000">
    <path d="M20.4 28.2c-2.7 0-4.9-2.5-4.9-5.6 0-3.1 2.2-5.6 4.9-5.6 2.7 0 4.9 2.5 4.9 5.6 0 3.1-2.2 5.6-4.9 5.6z"/>
    <path d="M43.6 28.2c-2.7 0-4.9-2.5-4.9-5.6 0-3.1 2.2-5.6 4.9-5.6 2.7 0 4.9 2.5 4.9 5.6 0 3.1-2.2 5.6-4.9 5.6z"/>
    <path d="M31.9 24.1c-2.5 0-4.6-2.6-4.6-5.8 0-3.2 2.1-5.8 4.6-5.8 2.5 0 4.6 2.6 4.6 5.8 0 3.2-2.1 5.8-4.6 5.8z"/>
    <path d="M53.2 33.4c-2.4 0-4.3-2.3-4.3-5.1 0-2.8 1.9-5.1 4.3-5.1 2.4 0 4.3 2.3 4.3 5.1 0 2.8-1.9 5.1-4.3 5.1z"/>
    <path d="M10.8 33.4c-2.4 0-4.3-2.3-4.3-5.1 0-2.8 1.9-5.1 4.3-5.1 2.4 0 4.3 2.3 4.3 5.1 0 2.8-1.9 5.1-4.3 5.1z"/>
    <path d="M32 54c-7.5 0-13.6-4.7-13.6-10.6 0-4.2 2.7-7.9 6.8-9.7 2.2-1 4.5-1.4 6.8-1.4s4.6.5 6.8 1.4c4.1 1.8 6.8 5.5 6.8 9.7C45.6 49.3 39.5 54 32 54z"/>
  </g>
</svg>
